<svg width="32" height="32" viewBox="0 0 32 32" fill="none" xmlns="http://www.w3.org/2000/svg">
  <rect width="32" height="32" rx="8" fill="#0a0a0a"/>
  
  <!-- Blockchain layers (Layers3 icon) -->
  <rect x="6" y="8" width="20" height="3" rx="1.5" fill="#00ff88"/>
  <rect x="6" y="13" width="20" height="3" rx="1.5" fill="#00ff88"/>
  <rect x="6" y="18" width="20" height="3" rx="1.5" fill="#00ff88"/>
  
  <!-- Leaf icon overlay -->
  <path d="M20 6c0-1 1-2 2-2s2 1 2 2c0 1-1 2-2 2s-2-1-2-2z" fill="#00ff88" opacity="0.8"/>
  <path d="M20 6c0-1 1-2 2-2s2 1 2 2c0 1-1 2-2 2s-2-1-2-2z" fill="#00ff88" opacity="0.6"/>
  
  <!-- Subtle glow effect -->
  <circle cx="16" cy="16" r="14" fill="#00ff88" opacity="0.1"/>
</svg>
